<svg width="440" height="956" viewBox="0 0 440 956" fill="none" xmlns="http://www.w3.org/2000/svg">
<rect width="440" height="956" transform="matrix(-1 0 0 -1 440 956)" fill="#679D82"/>
<path d="M440 86.1167L0 86.1167V-5.23925e-05L440 -5.23925e-05V86.1167Z" fill="white"/>
<path d="M440 134.254L421.667 127.41C403.333 120.565 366.667 106.877 330 102.77C293.333 98.6633 256.667 104.139 220 112.352C183.333 120.565 146.667 131.516 110 134.254C73.3333 136.992 36.6666 131.516 18.3333 128.778L0 126.041V84.9746H18.3333C36.6666 84.9746 73.3333 84.9746 110 84.9746C146.667 84.9746 183.333 84.9746 220 84.9746C256.667 84.9746 293.333 84.9746 330 84.9746C366.667 84.9746 403.333 84.9746 421.667 84.9746H440V134.254Z" fill="white"/>
</svg>
